<?xml version="1.0" standalone="no"?>
<!DOCTYPE svg PUBLIC "-//W3C//DTD SVG 20010904//EN"
 "http://www.w3.org/TR/2001/REC-SVG-20010904/DTD/svg10.dtd">
<svg version="1.0" xmlns="http://www.w3.org/2000/svg"
 width="424.000000pt" height="424.000000pt" viewBox="0 0 424.000000 424.000000"
 preserveAspectRatio="xMidYMid meet">
<metadata>
Created by potrace 1.14, written by Peter Selinger 2001-2017
</metadata>
<g transform="translate(0.000000,424.000000) scale(0.100000,-0.100000)"
fill="#000000" stroke="none">
<path d="M2058 4172 c-33 -4 -34 -10 -11 -83 24 -78 24 -77 28 -154 1 -38 6
-87 10 -107 6 -33 5 -38 -11 -39 -40 -3 -45 -4 -54 -19 -9 -13 -10 -13 -10 1
0 14 -9 14 -77 4 -43 -6 -81 -12 -85 -13 -5 -1 -20 -2 -34 -2 -14 0 -23 -4
-19 -9 3 -5 0 -13 -6 -17 -8 -4 -9 -3 -5 5 6 8 -2 11 -26 8 -38 -4 -196 -51
-248 -74 -103 -45 -244 -117 -261 -134 -10 -10 -21 -19 -24 -20 -40 -7 -50
-16 -46 -41 0 -4 -5 -5 -12 -2 -17 6 -100 -59 -103 -81 -1 -9 -6 -20 -10 -23
-4 -4 -4 1 -1 11 8 22 2 22 -28 -5 -13 -11 -21 -26 -18 -32 3 -6 2 -8 -2 -3
-5 4 -19 -3 -32 -15 -13 -12 -23 -16 -23 -9 0 7 -5 9 -10 6 -6 -4 -9 -3 -8 2
5 15 -44 83 -54 77 -7 -5 -8 -2 -3 6 4 7 3 15 -2 19 -5 3 -38 48 -72 99 -35
51 -68 95 -73 98 -9 6 -118 -94 -118 -109 0 -4 6 -5 13 -1 7 4 9 3 4 -2 -5 -5
-14 -9 -19 -9 -6 0 -13 -5 -15 -11 -2 -7 23 -25 57 -40 33 -16 60 -32 60 -36
0 -5 6 -8 14 -8 8 0 39 -24 69 -52 29 -29 67 -62 82 -74 l29 -20 -47 -51 c-26
-28 -57 -64 -70 -81 -70 -97 -87 -122 -114 -172 -99 -180 -114 -210 -109 -210
4 0 0 -10 -8 -22 -8 -13 -22 -54 -32 -93 -9 -38 -20 -72 -24 -75 -16 -11 -62
-298 -62 -386 0 -29 -3 -32 -34 -36 -18 -2 -31 -2 -28 1 4 5 -85 23 -175 36
-18 2 -41 7 -50 9 -9 3 -35 8 -58 11 l-43 6 -1 -43 c-1 -53 2 -152 5 -155 3
-3 89 17 106 24 8 4 22 8 30 9 8 2 34 7 57 12 28 6 46 6 54 -2 9 -8 10 -8 5 1
-5 9 1 11 22 7 16 -3 45 -1 65 4 21 6 37 7 38 4 1 -4 3 -27 4 -52 9 -112 15
-163 24 -198 6 -20 13 -53 16 -72 14 -84 34 -154 73 -255 20 -52 73 -166 82
-175 3 -3 18 -30 34 -60 15 -30 36 -64 45 -75 9 -11 32 -42 51 -70 18 -27 40
-57 47 -65 8 -8 27 -31 44 -50 l30 -35 -28 -23 c-15 -12 -27 -27 -25 -33 1 -6
-2 -8 -8 -4 -8 5 -86 -41 -110 -65 -3 -3 -32 -23 -65 -45 -33 -21 -62 -40 -64
-42 -5 -3 115 -123 124 -123 3 0 3 6 -1 13 -4 7 -3 9 2 4 5 -5 10 -13 10 -18
1 -5 2 -12 3 -16 2 -10 61 79 61 92 0 17 88 136 92 125 2 -6 15 7 28 29 14 22
29 41 33 41 4 0 29 -19 55 -43 81 -74 114 -98 128 -93 7 3 11 0 9 -7 -6 -15
62 -60 77 -51 6 4 8 3 5 -4 -4 -6 17 -23 48 -41 59 -34 70 -37 59 -19 -4 7 -3
8 5 4 6 -4 9 -11 6 -16 -9 -14 33 -32 58 -25 14 4 18 3 9 -3 -9 -6 -6 -12 13
-20 35 -16 43 -15 19 3 -17 14 -14 14 21 0 22 -9 45 -21 50 -27 6 -6 0 -5 -13
2 -13 6 -26 10 -28 8 -6 -7 84 -45 151 -64 33 -10 65 -21 71 -26 6 -4 13 -5
16 -3 3 3 18 1 33 -5 25 -10 52 -15 130 -26 56 -8 120 -15 173 -18 29 -1 58
-8 65 -16 9 -10 9 -11 0 -6 -8 4 -13 2 -14 -6 -1 -34 -46 -304 -54 -325 -5
-16 11 -19 83 -17 124 3 113 -1 108 44 -3 21 -10 49 -17 62 -16 28 -18 40 -24
152 -3 49 -8 92 -11 97 -3 5 -2 9 3 10 4 0 35 3 68 5 75 6 100 9 150 18 71 13
250 58 260 66 6 4 26 11 45 15 37 7 203 92 208 107 2 4 8 6 13 2 5 -3 9 0 9 6
0 6 8 10 18 8 18 -3 65 25 57 34 -3 3 8 11 25 18 16 7 30 16 30 20 0 5 13 11
29 15 16 3 41 19 55 36 15 16 31 27 36 24 6 -4 10 -1 10 5 0 13 82 90 93 87 5
-1 15 9 22 23 8 14 15 21 15 15 0 -5 5 -3 11 5 9 13 10 13 6 0 -6 -21 25 -71
40 -66 8 3 10 -1 6 -11 -5 -12 -3 -14 7 -8 9 5 11 4 6 -4 -4 -6 6 -29 24 -51
17 -22 28 -40 23 -40 -4 0 0 -5 10 -11 9 -5 17 -17 17 -26 0 -9 3 -13 6 -10 4
4 14 -6 23 -22 9 -15 24 -39 34 -52 l18 -24 55 57 c30 32 53 62 50 67 -4 5 -1
13 5 17 8 4 9 3 5 -4 -5 -8 -1 -10 10 -5 14 5 13 8 -7 24 -13 10 -40 27 -59
37 -77 39 -153 95 -143 105 3 3 -18 20 -46 37 -28 18 -51 35 -51 38 0 4 19 27
41 52 67 73 178 247 234 365 50 105 115 281 115 312 0 9 5 11 13 7 9 -6 9 -5
0 7 -9 12 -7 29 12 84 16 45 27 103 30 165 7 109 10 120 27 120 10 0 10 -2 0
-9 -9 -5 -1 -10 25 -14 59 -10 85 -9 77 5 -4 7 -3 8 5 4 6 -4 9 -12 6 -17 -4
-5 6 -9 22 -10 15 0 35 -2 43 -4 65 -14 165 -31 184 -30 18 0 19 7 18 89 -1
50 -5 93 -9 97 -5 4 -30 0 -58 -8 -27 -8 -58 -15 -67 -16 -10 -1 -18 -4 -18
-7 0 -3 -8 -6 -17 -6 -10 0 -37 -3 -60 -7 -28 -5 -43 -4 -43 3 0 6 -4 9 -8 6
-5 -3 -22 -7 -38 -10 -16 -3 -41 -8 -56 -12 -26 -5 -28 -3 -29 28 -4 217 -64
456 -166 663 -60 122 -185 315 -205 315 -4 0 -8 6 -8 14 0 8 -7 17 -16 20 -14
5 3 -22 86 -133 14 -19 19 -32 13 -27 -22 12 -15 -24 12 -71 14 -23 31 -43 37
-43 6 0 9 -3 5 -6 -3 -3 6 -27 19 -54 13 -26 24 -51 24 -55 0 -4 10 -21 22
-38 13 -18 21 -38 20 -45 -2 -8 0 -21 4 -31 4 -9 8 -19 9 -23 2 -5 4 -10 5
-13 1 -3 4 -9 5 -15 1 -5 3 -11 5 -12 2 -4 11 -39 14 -58 1 -9 6 -21 10 -28 4
-7 6 -16 3 -18 -3 -3 1 -20 8 -38 8 -18 16 -62 19 -97 3 -35 9 -75 12 -89 9
-43 11 -286 2 -357 -13 -99 -15 -118 -18 -118 -1 0 -3 -9 -5 -20 -40 -277
-188 -567 -411 -808 -24 -26 -44 -52 -44 -58 0 -6 -4 -8 -8 -5 -5 3 -18 -2
-28 -12 -40 -36 -91 -78 -118 -97 -59 -42 -95 -72 -91 -77 2 -2 -5 -5 -17 -5
-11 -1 -28 -9 -37 -17 -10 -9 -23 -16 -29 -16 -7 0 -12 -4 -12 -10 0 -5 -3 -9
-7 -8 -8 3 -79 -29 -196 -88 -38 -19 -73 -32 -78 -28 -5 3 -9 0 -9 -6 0 -6 -4
-8 -10 -5 -5 3 -10 1 -10 -5 0 -6 -4 -9 -9 -5 -5 3 -12 1 -16 -5 -3 -5 -12
-10 -18 -10 -7 0 -6 4 3 10 13 8 13 10 -1 10 -9 0 -22 -7 -29 -15 -7 -8 -25
-15 -41 -15 -15 0 -30 -4 -33 -8 -3 -5 -41 -9 -85 -11 -44 -1 -90 -4 -103 -6
-29 -6 -281 -6 -328 0 -19 2 -57 6 -85 9 -82 9 -116 15 -225 46 -41 11 -82 25
-91 29 -8 5 -47 21 -85 37 -102 40 -254 122 -254 137 0 4 -7 7 -15 7 -8 0 -15
5 -15 11 0 6 -9 9 -20 6 -11 -3 -18 -2 -15 3 3 4 -12 22 -33 39 -121 102 -156
135 -225 216 -139 164 -220 295 -285 460 -38 95 -51 132 -51 138 0 1 -7 25
-16 52 -15 49 -37 171 -50 270 -7 55 -8 322 -1 333 2 4 7 38 11 75 3 37 12 89
20 115 43 155 58 201 75 239 11 24 20 45 20 48 0 3 16 37 35 76 19 39 32 75
29 80 -3 5 2 12 10 15 9 3 16 11 16 16 0 13 80 132 92 136 4 2 8 9 8 16 0 25
238 271 305 316 13 8 71 48 130 88 59 39 113 72 119 72 7 0 40 14 74 30 34 17
67 30 72 30 9 0 84 31 121 50 8 4 23 3 34 -2 13 -8 16 -8 10 2 -6 10 -1 12 17
8 13 -2 30 1 36 9 7 7 25 14 40 15 41 2 56 5 72 11 8 3 31 8 50 11 19 2 35 5
35 7 0 8 300 11 350 4 17 -3 55 -8 85 -11 30 -3 82 -13 115 -21 33 -8 71 -17
85 -20 14 -2 70 -20 125 -39 122 -42 128 -44 133 -21 2 9 -2 17 -10 17 -7 0
-53 16 -103 34 -49 19 -93 32 -98 29 -5 -3 -13 0 -17 7 -4 6 -26 13 -49 13
-22 1 -41 6 -41 11 0 4 -13 6 -29 4 -17 -2 -28 -1 -25 4 3 4 -2 8 -11 8 -10 0
-13 -5 -9 -12 6 -10 5 -10 -8 -1 -8 7 -18 10 -21 6 -4 -3 -7 -1 -7 6 0 9 -10
12 -29 9 -17 -2 -27 0 -24 4 3 5 -1 8 -8 7 -32 -6 -181 14 -168 22 12 7 11 9
-1 9 -12 0 -13 2 -1 9 8 5 12 19 9 35 -3 14 -1 23 4 20 5 -3 8 0 7 7 -3 15 9
86 18 109 4 8 6 18 5 21 -1 4 5 41 12 83 7 42 10 76 7 77 -21 3 -141 3 -163 1z
m97 -164 c0 -59 -3 -104 -7 -101 -5 2 -8 -4 -8 -14 -1 -40 -22 19 -26 71 -2
28 -6 71 -8 96 -5 46 4 60 33 55 14 -2 16 -18 16 -107z m-425 -282 c0 -2 -7
-6 -15 -10 -8 -3 -15 -1 -15 4 0 6 7 10 15 10 8 0 15 -2 15 -4z m847 -12 c-3
-3 -12 -4 -19 -1 -8 3 -5 6 6 6 11 1 17 -2 13 -5z m149 -50 c18 -14 18 -14 -6
-3 -31 14 -36 19 -24 19 6 0 19 -7 30 -16z m77 -26 c5 1 6 -2 2 -7 -7 -12 -55
7 -55 21 0 5 10 3 23 -4 12 -7 26 -11 30 -10z m-1483 -72 c0 -2 -8 -10 -17
-17 -16 -13 -17 -12 -4 4 13 16 21 21 21 13z m-520 -111 c20 -22 45 -53 56
-69 l18 -29 -30 16 c-28 14 -58 39 -115 93 -14 13 -31 24 -37 24 -16 0 -15 11
3 34 8 10 12 24 9 30 -3 6 9 -5 26 -24 18 -19 49 -53 70 -75z m190 -135 c0 -5
-5 -10 -11 -10 -5 0 -7 5 -4 10 3 6 8 10 11 10 2 0 4 -4 4 -10z m-757 -1193
c53 -2 100 -6 103 -10 10 -10 -41 -26 -96 -30 -27 -2 -57 -10 -67 -18 -17 -13
-17 -13 -3 5 13 18 13 19 0 14 -53 -19 -60 -19 -60 -1 0 11 -6 25 -12 32 -10
11 -10 13 0 7 6 -4 12 -3 12 3 0 6 6 8 13 6 6 -3 56 -7 110 -8z m3917 -16 c0
-11 5 -23 10 -26 6 -3 10 -12 10 -18 0 -7 -4 -6 -10 3 -6 9 -10 10 -10 3 0 -7
-10 -10 -26 -7 -14 3 -60 7 -102 9 -97 6 -102 7 -97 16 6 9 68 20 138 24 32 2
61 6 65 9 11 12 22 5 22 -13z m-4083 -93 c-3 -8 -6 -5 -6 6 -1 11 2 17 5 13 3
-3 4 -12 1 -19z m777 -1159 c-9 -17 -31 -48 -50 -68 -53 -55 -60 -65 -67 -85
-6 -15 -10 -16 -22 -6 -8 6 -19 9 -24 6 -22 -14 -20 15 2 36 13 13 45 43 71
68 39 36 91 76 104 79 1 1 -5 -13 -14 -30z m2639 -49 c6 -9 22 -20 35 -24 12
-4 20 -12 16 -17 -3 -5 8 -15 24 -22 27 -11 29 -14 16 -31 -7 -10 -11 -22 -9
-27 3 -4 -4 -5 -15 -2 -11 3 -20 8 -20 12 0 3 -19 26 -42 51 -51 54 -88 101
-88 112 0 11 68 -31 83 -52z m-2362 -17 c13 -16 12 -17 -3 -4 -10 7 -18 15
-18 17 0 8 8 3 21 -13z m1015 -536 c2 -29 6 -75 9 -103 4 -51 4 -52 -25 -50
l-28 1 4 93 c2 51 5 98 7 105 1 7 -4 11 -11 9 -8 -1 -11 2 -7 8 3 6 11 8 16 5
5 -4 9 0 9 7 1 33 22 -29 26 -75z m71 -193 c-3 -3 -12 -4 -19 -1 -8 3 -5 6 6
6 11 1 17 -2 13 -5z"/>
<path d="M2855 3613 c18 -10 25 -18 17 -21 -7 -2 -19 2 -28 8 -8 7 -17 10 -20
7 -4 -3 27 -23 67 -43 136 -68 148 -74 154 -84 3 -5 12 -10 18 -10 17 1 -31
36 -81 60 -24 11 -40 25 -37 30 3 5 0 12 -6 16 -8 4 -9 3 -5 -4 4 -7 3 -12 -3
-12 -5 0 -13 5 -16 10 -4 6 -11 8 -16 5 -5 -4 -9 1 -9 10 0 9 5 13 10 10 6 -3
10 -4 10 -1 0 6 -68 36 -79 36 -3 -1 8 -8 24 -17z"/>
<path d="M3507 3585 c-15 -25 -27 -52 -27 -60 0 -7 -4 -15 -8 -17 -4 -1 -23
-24 -42 -50 -18 -27 -37 -48 -41 -48 -9 0 -73 -88 -83 -114 -5 -16 -4 -17 9
-6 13 11 19 7 17 -12 -3 -20 32 -13 65 13 21 16 53 39 70 50 18 12 31 24 28
28 -2 4 2 8 8 8 7 0 50 26 96 58 l82 57 -23 26 c-56 63 -125 117 -102 80 4 -7
3 -8 -4 -4 -6 4 -9 13 -5 21 12 32 -14 12 -40 -30z m63 -60 c7 -8 17 -12 22
-9 21 13 -12 -34 -34 -49 -13 -8 -48 -38 -78 -66 -30 -28 -59 -51 -63 -51 -11
0 30 69 60 99 13 13 23 30 23 38 0 8 4 11 10 8 5 -3 15 5 22 19 13 30 21 32
38 11z"/>
<path d="M3080 3461 c0 -10 19 -25 25 -20 1 2 -3 10 -11 17 -8 7 -14 8 -14 3z"/>
<path d="M3160 3400 c6 -11 13 -20 16 -20 2 0 0 9 -6 20 -6 11 -13 20 -16 20
-2 0 0 -9 6 -20z"/>
<path d="M2095 3270 c-18 -8 -18 -9 5 -9 14 0 32 4 40 9 12 8 12 10 -5 9 -11
0 -29 -4 -40 -9z"/>
<path d="M1945 3255 c-33 -6 -75 -17 -94 -23 -45 -16 -52 -15 -21 4 24 14 24
14 -15 9 -21 -3 -42 -10 -46 -16 -3 -6 -10 -11 -15 -11 -21 0 -84 -31 -84 -41
0 -6 -3 -7 -7 -4 -9 9 -94 -40 -115 -67 -10 -11 -18 -17 -18 -12 0 10 -68 -40
-92 -69 -10 -11 -17 -17 -18 -12 0 10 -110 -104 -110 -114 0 -5 -15 -26 -33
-46 -29 -33 -80 -109 -83 -123 0 -3 -16 -36 -34 -75 -125 -266 -143 -583 -49
-890 27 -88 77 -188 145 -290 54 -81 162 -202 176 -198 4 2 15 -8 23 -21 29
-44 231 -163 273 -160 12 1 22 -2 22 -7 0 -7 33 -22 55 -25 6 0 23 -6 38 -13
61 -24 174 -40 270 -37 54 2 100 6 103 9 3 3 19 1 35 -3 20 -6 33 -5 42 4 7 7
19 12 27 11 8 -1 26 2 40 8 14 5 37 10 52 12 15 1 35 8 44 16 11 9 15 9 10 2
-9 -16 -9 -16 55 6 189 65 364 201 477 371 45 68 116 200 107 200 -2 0 5 19
15 43 28 63 50 204 49 320 0 134 0 137 -16 137 -7 0 -13 5 -13 11 0 5 4 8 8 5
5 -3 6 9 4 26 -3 21 -7 26 -13 17 -6 -10 -9 -10 -9 -2 0 6 4 14 9 18 21 12
-65 217 -130 312 -213 309 -596 447 -954 342 -111 -32 -240 -110 -332 -200
-51 -50 -153 -190 -153 -209 0 -6 -5 -10 -12 -10 -6 0 -8 -3 -5 -7 4 -3 3 -11
-2 -17 -14 -18 -32 -77 -54 -181 -14 -64 -15 -204 -1 -226 4 -8 9 -20 10 -29
2 -8 5 -26 7 -40 2 -14 11 -41 19 -60 9 -19 21 -50 28 -67 7 -18 16 -33 20
-33 5 0 19 -19 33 -42 60 -103 221 -206 372 -239 50 -10 165 -12 165 -1 0 4
28 8 62 10 34 1 67 7 73 12 7 5 14 7 18 4 12 -12 151 74 205 126 31 30 52 49
47 41 -5 -10 -4 -12 3 -7 7 4 12 14 12 22 0 8 4 14 8 14 4 0 8 10 9 22 1 11 8
25 14 29 10 6 10 11 0 22 -10 13 -9 15 7 10 19 -5 21 0 25 56 1 16 5 27 10 24
4 -2 7 6 8 19 0 13 2 46 4 73 3 56 -17 143 -41 180 -9 13 -12 30 -8 36 4 7 3
9 -3 6 -6 -4 -21 9 -34 28 -13 19 -32 38 -41 41 -10 3 -18 9 -18 15 0 31 -177
99 -259 99 -80 0 -179 -34 -204 -70 -8 -11 -18 -17 -23 -12 -4 4 -3 0 4 -10 8
-10 9 -19 3 -22 -5 -3 -11 -1 -13 6 -7 21 -57 -64 -64 -109 -6 -38 -4 -43 12
-42 11 0 14 3 6 6 -6 2 -10 8 -8 11 2 4 7 25 10 47 4 21 14 47 23 57 23 26 28
15 7 -18 -20 -30 -27 -57 -13 -48 5 3 9 11 9 18 0 6 13 30 29 52 31 41 121 94
161 94 13 0 19 4 14 11 -5 8 -1 8 14 0 11 -6 27 -11 34 -10 7 0 4 4 -7 9 -17
8 -17 9 7 7 15 -1 25 -4 22 -8 -6 -10 84 -22 98 -13 6 4 8 3 5 -2 -3 -5 19
-23 49 -38 110 -58 181 -168 192 -301 4 -46 5 -82 1 -79 -4 2 -10 -11 -13 -30
-4 -18 -18 -55 -31 -82 -27 -54 -31 -69 -13 -58 7 4 8 3 4 -5 -4 -7 -13 -10
-19 -8 -10 3 -92 -79 -92 -93 0 -5 -4 -12 -9 -17 -5 -5 -6 -2 -1 6 10 17 5 15
-68 -27 -31 -19 -55 -38 -51 -43 3 -5 -1 -6 -9 -3 -8 3 -41 -2 -73 -12 -180
-52 -390 1 -531 135 -35 33 -63 66 -63 74 0 8 -7 18 -15 21 -18 6 -76 128 -80
166 -1 14 -8 38 -14 55 -13 31 -13 153 0 214 4 20 12 60 18 90 31 152 210 368
371 448 212 105 395 120 610 52 61 -20 143 -55 165 -71 6 -4 31 -24 58 -43 26
-19 50 -35 52 -35 7 0 71 -67 105 -110 14 -17 31 -37 38 -45 6 -7 12 -16 12
-19 0 -3 13 -27 28 -53 40 -68 88 -196 102 -273 13 -70 20 -353 9 -323 -6 14
-8 12 -8 -10 -1 -16 3 -26 8 -23 4 3 6 -6 3 -20 -3 -19 -7 -22 -13 -12 -8 13
-13 -3 -12 -39 1 -7 -5 -13 -13 -13 -8 0 -14 -10 -14 -23 0 -26 -76 -187 -88
-187 -4 0 -13 -13 -20 -29 -19 -43 -169 -193 -242 -242 -56 -38 -156 -91 -225
-120 -98 -41 -269 -66 -419 -63 -133 3 -177 9 -214 28 -16 8 -38 14 -48 14
-24 -2 -114 40 -114 53 0 5 -3 8 -7 7 -19 -5 -83 24 -76 35 3 7 3 9 -2 5 -12
-11 -66 21 -104 61 -19 20 -31 29 -26 21 15 -25 -67 52 -118 110 -130 151
-213 327 -248 527 -13 70 -18 296 -8 323 6 15 15 60 23 110 12 80 66 238 109
322 99 191 260 356 450 458 62 34 165 76 202 84 6 1 15 5 21 8 6 4 31 10 54
13 42 5 58 11 49 18 -2 2 -31 -2 -64 -8z m175 -905 c-33 -23 -50 -30 -50 -23
0 5 10 13 23 19 28 15 47 17 27 4z m295 -10 c3 -6 -1 -7 -9 -4 -18 7 -21 14
-7 14 6 0 13 -4 16 -10z m742 -302 c-3 -8 -6 -5 -6 6 -1 11 2 17 5 13 3 -3 4
-12 1 -19z m-507 -22 c0 -3 -4 -8 -10 -11 -5 -3 -10 -1 -10 4 0 6 5 11 10 11
6 0 10 -2 10 -4z m477 -98 c-3 -8 -6 -5 -6 6 -1 11 2 17 5 13 3 -3 4 -12 1
-19z m0 -160 c-3 -8 -6 -5 -6 6 -1 11 2 17 5 13 3 -3 4 -12 1 -19z m-1272
-176 c-3 -3 -11 0 -18 7 -9 10 -8 11 6 5 10 -3 15 -9 12 -12z"/>
<path d="M2033 3263 c9 -2 23 -2 30 0 6 3 -1 5 -18 5 -16 0 -22 -2 -12 -5z"/>
<path d="M3350 3230 c13 -11 28 -20 34 -20 13 0 -35 39 -48 40 -5 0 1 -9 14
-20z"/>
<path d="M1963 2093 c-8 -17 -9 -30 -3 -38 5 -7 8 -14 5 -17 -3 -3 1 -11 10
-18 10 -8 15 -9 15 -1 0 6 -4 11 -9 11 -6 0 -8 20 -6 45 2 25 3 45 2 45 -1 0
-8 -12 -14 -27z"/>
<path d="M2005 1960 c10 -11 20 -20 22 -20 2 0 -1 9 -7 20 -6 11 -16 20 -22
20 -6 0 -3 -9 7 -20z"/>
</g>
</svg>
